#Comment line ignore any data following # character 
#Hierarchical Translation and Rotation (.htr) file 
[Header]	
#Header keywords are followed by a single value 
FileType HTR		#Single word string
DataType HTRS		#Translation followed by rotation and scale data
FileVersion 1		#integer
NumSegments 64		#integer
NumFrames 3		#integer
DataFrameRate 30		#integer, data frame rate in this file
EulerRotationOrder ZYX
CalibrationUnits mm
RotationUnits Degrees
GlobalAxisofGravity Y
BoneLengthAxis Y
ScaleFactor 1.00
[SegmentNames&Hierarchy]
#CHILD	PARENT
Pinger_Root GLOBAL
Pelvis Pinger_Root
L_Hip Pelvis
R_Hip Pelvis
Rear_Leg01 Pelvis
Spine1 Pelvis
L_Leg01 L_Hip
L_Leg02 L_Leg01
L_Leg03 L_Leg02
L_Foot L_Leg03
L_Toe1_01 L_Foot
L_Toe2_01 L_Foot
L_Toe3_01 L_Foot
planeAlignerLeft L_Foot
L_Toe1_02 L_Toe1_01
L_Toe1_03 L_Toe1_02
L_Toe2_02 L_Toe2_01
L_Toe2_03 L_Toe2_02
L_Toe3_02 L_Toe3_01
L_Toe3_03 L_Toe3_02
planeLockWeightLeft planeAlignerLeft
R_Leg01 R_Hip
R_Leg02 R_Leg01
R_Leg03 R_Leg02
R_Foot R_Leg03
planeAlignerRight R_Foot
R_Toe1_01 R_Foot
R_Toe2_01 R_Foot
R_Toe3_01 R_Foot
planeLockWeightRight planeAlignerRight
R_Toe1_02 R_Toe1_01
R_Toe1_03 R_Toe1_02
R_Toe2_02 R_Toe2_01
R_Toe2_03 R_Toe2_02
R_Toe3_02 R_Toe3_01
R_Toe3_03 R_Toe3_02
Rear_Leg02 Rear_Leg01
Rear_Leg03 Rear_Leg02
Rear_Leg04 Rear_Leg03
Rear_Foot Rear_Leg04
planeAlignerCenter Rear_Foot
Rear_Toe1_01 Rear_Foot
Rear_Toe2_01 Rear_Foot
Rear_Toe3_01 Rear_Foot
planeLockWeightCenter planeAlignerCenter
Rear_Toe1_02 Rear_Toe1_01
Rear_Toe1_03 Rear_Toe1_02
Rear_Toe2_02 Rear_Toe2_01
Rear_Toe2_03 Rear_Toe2_02
Rear_Toe3_02 Rear_Toe3_01
Rear_Toe3_03 Rear_Toe3_02
Back_Bone Spine1
Head Spine1
Motor_Bone Back_Bone
Ping_Mechanism Back_Bone
BN_LookIK Head
bottomMouth Head
L_Mouth01 Head
L_mouthFront Head
mouthGun Head
R_Mouth01 Head
R_mouthFront Head
TopMouth Head
weapon_bone Head
[BasePosition]
#SegmentName Tx, Ty, Tz, Rx, Ry, Rz, BoneLength
Pinger_Root 0.000000 0.000000 0.000000 -90.000000 0.000000 0.000000 10.000000 
Pelvis 0.000000 0.000000 0.000000 0.000000 0.000000 0.000000 10.000000 
L_Hip 0.000000 0.000000 0.000000 0.000000 0.000000 0.000000 10.000000 
R_Hip 0.000000 0.000000 0.000000 0.000000 0.000000 0.000000 10.000000 
Rear_Leg01 0.000000 0.000000 0.000000 0.000000 0.000000 0.000000 10.000000 
Spine1 0.000000 0.000000 0.000000 0.000000 0.000000 0.000000 10.000000 
L_Leg01 0.000000 0.000000 0.000000 0.000000 0.000000 0.000000 10.000000 
L_Leg02 0.000000 0.000000 0.000000 0.000000 0.000000 0.000000 10.000000 
L_Leg03 0.000000 0.000000 0.000000 0.000000 0.000000 0.000000 10.000000 
L_Foot 0.000000 0.000000 0.000000 0.000000 0.000000 0.000000 10.000000 
L_Toe1_01 0.000000 0.000000 0.000000 0.000000 0.000000 0.000000 10.000000 
L_Toe2_01 0.000000 0.000000 0.000000 0.000000 0.000000 0.000000 10.000000 
L_Toe3_01 0.000000 0.000000 0.000000 0.000000 0.000000 0.000000 10.000000 
planeAlignerLeft 0.000000 0.000000 0.000000 0.000000 0.000000 0.000000 10.000000 
L_Toe1_02 0.000000 0.000000 0.000000 0.000000 0.000000 0.000000 10.000000 
L_Toe1_03 0.000000 0.000000 0.000000 0.000000 0.000000 0.000000 10.000000 
L_Toe2_02 0.000000 0.000000 0.000000 0.000000 0.000000 0.000000 10.000000 
L_Toe2_03 0.000000 0.000000 0.000000 0.000000 0.000000 0.000000 10.000000 
L_Toe3_02 0.000000 0.000000 0.000000 0.000000 0.000000 0.000000 10.000000 
L_Toe3_03 0.000000 0.000000 0.000000 0.000000 0.000000 0.000000 10.000000 
planeLockWeightLeft 0.000000 0.000000 0.000000 0.000000 0.000000 0.000000 10.000000 
R_Leg01 0.000000 0.000000 0.000000 0.000000 0.000000 0.000000 10.000000 
R_Leg02 0.000000 0.000000 0.000000 0.000000 0.000000 0.000000 10.000000 
R_Leg03 0.000000 0.000000 0.000000 0.000000 0.000000 0.000000 10.000000 
R_Foot 0.000000 0.000000 0.000000 0.000000 0.000000 0.000000 10.000000 
planeAlignerRight 0.000000 0.000000 0.000000 0.000000 0.000000 0.000000 10.000000 
R_Toe1_01 0.000000 0.000000 0.000000 0.000000 0.000000 0.000000 10.000000 
R_Toe2_01 0.000000 0.000000 0.000000 0.000000 0.000000 0.000000 10.000000 
R_Toe3_01 0.000000 0.000000 0.000000 0.000000 0.000000 0.000000 10.000000 
planeLockWeightRight 0.000000 0.000000 0.000000 0.000000 0.000000 0.000000 10.000000 
R_Toe1_02 0.000000 0.000000 0.000000 0.000000 0.000000 0.000000 10.000000 
R_Toe1_03 0.000000 0.000000 0.000000 0.000000 0.000000 0.000000 10.000000 
R_Toe2_02 0.000000 0.000000 0.000000 0.000000 0.000000 0.000000 10.000000 
R_Toe2_03 0.000000 0.000000 0.000000 0.000000 0.000000 0.000000 10.000000 
R_Toe3_02 0.000000 0.000000 0.000000 0.000000 0.000000 0.000000 10.000000 
R_Toe3_03 0.000000 0.000000 0.000000 0.000000 0.000000 0.000000 10.000000 
Rear_Leg02 0.000000 0.000000 0.000000 0.000000 0.000000 0.000000 10.000000 
Rear_Leg03 0.000000 0.000000 0.000000 0.000000 0.000000 0.000000 10.000000 
Rear_Leg04 0.000000 0.000000 0.000000 0.000000 0.000000 0.000000 10.000000 
Rear_Foot 0.000000 0.000000 0.000000 0.000000 0.000000 0.000000 10.000000 
planeAlignerCenter 0.000000 0.000000 0.000000 0.000000 0.000000 0.000000 10.000000 
Rear_Toe1_01 0.000000 0.000000 0.000000 0.000000 0.000000 0.000000 10.000000 
Rear_Toe2_01 0.000000 0.000000 0.000000 0.000000 0.000000 0.000000 10.000000 
Rear_Toe3_01 0.000000 0.000000 0.000000 0.000000 0.000000 0.000000 10.000000 
planeLockWeightCenter 0.000000 0.000000 0.000000 0.000000 0.000000 0.000000 10.000000 
Rear_Toe1_02 0.000000 0.000000 0.000000 0.000000 0.000000 0.000000 10.000000 
Rear_Toe1_03 0.000000 0.000000 0.000000 0.000000 0.000000 0.000000 10.000000 
Rear_Toe2_02 0.000000 0.000000 0.000000 0.000000 0.000000 0.000000 10.000000 
Rear_Toe2_03 0.000000 0.000000 0.000000 0.000000 0.000000 0.000000 10.000000 
Rear_Toe3_02 0.000000 0.000000 0.000000 0.000000 0.000000 0.000000 10.000000 
Rear_Toe3_03 0.000000 0.000000 0.000000 0.000000 0.000000 0.000000 10.000000 
Back_Bone 0.000000 0.000000 0.000000 0.000000 0.000000 0.000000 10.000000 
Head 0.000000 0.000000 0.000000 0.000000 0.000000 0.000000 10.000000 
Motor_Bone 0.000000 0.000000 0.000000 0.000000 0.000000 0.000000 10.000000 
Ping_Mechanism 0.000000 0.000000 0.000000 0.000000 0.000000 0.000000 10.000000 
BN_LookIK 0.000000 0.000000 0.000000 0.000000 0.000000 0.000000 10.000000 
bottomMouth 0.000000 0.000000 0.000000 0.000000 0.000000 0.000000 10.000000 
L_Mouth01 0.000000 0.000000 0.000000 0.000000 0.000000 0.000000 10.000000 
L_mouthFront 0.000000 0.000000 0.000000 0.000000 0.000000 0.000000 10.000000 
mouthGun 0.000000 0.000000 0.000000 0.000000 0.000000 0.000000 10.000000 
R_Mouth01 0.000000 0.000000 0.000000 0.000000 0.000000 0.000000 10.000000 
R_mouthFront 0.000000 0.000000 0.000000 0.000000 0.000000 0.000000 10.000000 
TopMouth 0.000000 0.000000 0.000000 0.000000 0.000000 0.000000 10.000000 
weapon_bone 0.000000 0.000000 0.000000 0.000000 0.000000 0.000000 10.000000 
#Beginning of Data. Separated by tabs
#Fr	Tx	Ty	Tz	Rx	Ry	Rz	SF
[Pinger_Root]
245 0.000000 0.000000 0.000000 -0.000075 -0.000000 -0.000020 0.000000
246 0.000000 0.000000 0.000000 -0.000075 -0.000000 -0.000020 0.000000
247 0.000000 0.000000 0.000000 -0.000075 -0.000000 -0.000020 0.000000
[Pelvis]
245 -147.356705 604.169983 4472.657227 40.646111 -83.771751 -49.113564 4515.683594
246 -159.401337 607.697388 4469.073730 43.509079 -83.482903 -51.994045 4513.017090
247 -171.947006 611.754272 4463.411133 46.122490 -83.179153 -54.624985 4508.419922
[L_Hip]
245 5.766392 125.831482 872.656799 160.158691 -45.484905 122.312202 881.701050
246 5.766392 125.831482 872.656799 160.158691 -45.484905 122.312202 881.701050
247 5.766392 125.831482 872.656799 160.158691 -45.484905 122.312202 881.701050
[R_Hip]
245 5.765438 125.836372 -872.654907 38.084450 49.814915 125.699387 881.699829
246 5.765438 125.836372 -872.654907 38.085121 49.814461 125.700264 881.699829
247 5.765438 125.836372 -872.654907 38.085812 49.814018 125.701134 881.699829
[Rear_Leg01]
245 -192.298416 -925.602966 -0.001907 176.814072 13.226731 -129.533875 945.367432
246 -192.298416 -925.602966 -0.001907 176.937439 13.373457 -128.988800 945.367432
247 -192.298416 -925.602966 -0.001907 177.089874 13.548336 -128.388184 945.367432
[Spine1]
245 290.604584 5.007505 0.000477 14.743098 -9.509833 19.117861 290.647736
246 290.604584 5.007505 0.000477 14.695889 -9.499343 19.611887 290.647736
247 290.604584 5.007505 0.000477 14.648779 -9.488456 20.105865 290.647736
[L_Leg01]
245 761.932007 -0.002384 -0.069261 13.641226 -24.381550 -0.051298 761.932068
246 761.932007 -0.002384 -0.069261 14.027980 -24.265566 -0.959193 761.932068
247 761.932007 -0.002384 -0.069261 14.412258 -24.144026 -1.865239 761.932068
[L_Leg02]
245 1441.140503 -0.000954 -0.000715 1.106539 -0.347885 -135.312622 1441.140503
246 1441.140503 -0.000954 -0.000715 1.083667 -0.336916 -135.041870 1441.140503
247 1441.140503 -0.000954 -0.000715 1.060850 -0.325840 -134.771149 1441.140503
[L_Leg03]
245 1686.963989 -0.000715 -0.000954 0.039825 -0.013785 99.346680 1686.963989
246 1686.963989 -0.000715 -0.000954 0.039005 -0.012905 99.529427 1686.963989
247 1686.963989 -0.000715 -0.000954 0.038187 -0.012023 99.712212 1686.963989
[L_Foot]
245 3041.570068 -30.715107 11.297464 6.597260 13.311481 61.385979 3041.746094
246 3041.570068 -30.715107 11.297464 6.759183 13.327587 61.467659 3041.746094
247 3041.570068 -30.715107 11.297464 6.921135 13.343471 61.549389 3041.746094
[L_Toe1_01]
245 -188.216690 -224.732346 -21.137953 94.500328 -6.883130 -175.369858 293.899567
246 -188.216690 -224.732346 -21.137953 94.543770 -6.799929 -175.888733 293.899567
247 -188.216690 -224.732346 -21.137953 94.603645 -6.677033 -176.647400 293.899567
[L_Toe2_01]
245 200.746536 -219.926590 148.838394 -88.311775 -23.565929 -58.535351 332.896027
246 200.746536 -219.926590 148.838394 -88.546738 -23.603718 -57.944969 332.896027
247 200.746536 -219.926590 148.838394 -88.884331 -23.651819 -57.094299 332.896027
[L_Toe3_01]
245 188.832520 -219.859131 -191.078659 -99.341568 11.485862 -75.506126 347.140900
246 188.832520 -219.859131 -191.078659 -99.309921 11.768409 -74.822716 347.140900
247 188.832520 -219.859131 -191.078659 -99.274780 12.050589 -74.138374 347.140900
[planeAlignerLeft]
245 0.812531 -811.448792 -0.314951 0.000000 -90.000000 -90.001900 811.449280
246 0.812531 -811.448792 -0.314951 0.000000 -90.000000 -90.001900 811.449280
247 0.812531 -811.448792 -0.314951 0.000000 -90.000000 -90.001900 811.449280
[L_Toe1_02]
245 413.761139 0.000477 0.000000 0.001421 -21.378868 0.001421 413.761139
246 413.761139 0.000477 0.000000 0.001422 -21.239618 0.001422 413.761139
247 413.761139 0.000477 0.000000 0.001423 -21.100374 0.001423 413.761139
[L_Toe1_03]
245 464.317322 0.000358 -0.000089 0.027532 85.113647 0.027532 464.317322
246 464.317322 0.000358 -0.000089 0.031165 85.683578 0.031165 464.317322
247 464.317322 0.000358 -0.000089 0.035901 86.253052 0.035901 464.317322
[L_Toe2_02]
245 342.235809 -0.000477 0.000238 0.001180 -78.180534 0.001180 342.235809
246 342.235809 -0.000477 0.000238 0.001180 -78.348114 0.001180 342.235809
247 342.235809 -0.000477 0.000238 0.001180 -78.515732 0.001180 342.235809
[L_Toe2_03]
245 420.210846 -0.000715 0.000000 -179.997208 75.501839 -179.993683 420.210846
246 420.210846 -0.000715 0.000000 -179.997437 74.711571 -179.993912 420.210846
247 420.210846 -0.000715 0.000000 -179.997650 73.921349 -179.994141 420.210846
[L_Toe3_02]
245 329.270111 0.000954 0.000000 0.001176 -82.549232 0.001176 329.270111
246 329.270111 0.000954 0.000000 0.001176 -82.706474 0.001176 329.270111
247 329.270111 0.000954 0.000000 0.001176 -82.863701 0.001176 329.270111
[L_Toe3_03]
245 439.137451 -0.001907 0.000954 -179.998566 69.388847 -179.995010 439.137451
246 439.137451 -0.001907 0.000954 179.995728 68.497375 -179.998947 439.137451
247 439.137451 -0.001907 0.000954 179.990387 67.605873 179.997528 439.137451
[planeLockWeightLeft]
245 -0.000954 0.000238 -0.000305 -0.011826 -0.004376 0.005620 0.001029
246 -0.000954 0.000238 -0.000305 -0.011826 -0.004376 0.005620 0.001029
247 -0.000954 0.000238 -0.000305 -0.011826 -0.004376 0.005620 0.001029
[R_Leg01]
245 761.455627 -0.001907 -0.000358 122.982300 -42.332226 9.539574 761.455688
246 761.455627 -0.001907 -0.000358 122.252502 -41.758705 10.286067 761.455688
247 761.455627 -0.001907 -0.000358 121.539268 -41.178329 11.016086 761.455688
[R_Leg02]
245 1441.140625 0.000000 -0.000238 -0.645966 0.171151 -145.511581 1441.140625
246 1441.140625 0.000000 -0.000238 -0.635484 0.166243 -145.211319 1441.140625
247 1441.140625 0.000000 -0.000238 -0.631132 0.163677 -145.123154 1441.140625
[R_Leg03]
245 1686.963989 0.000954 0.001431 -0.042212 0.013681 98.552879 1686.963989
246 1686.963989 0.000954 0.001431 -0.041384 0.012814 98.746460 1686.963989
247 1686.963989 0.000954 0.001431 -0.040559 0.011944 98.940033 1686.963989
[R_Foot]
245 3041.560059 -30.531288 -11.204481 2.889547 -24.321938 65.290947 3041.734131
246 3041.560059 -30.531288 -11.204481 3.061955 -24.315308 65.163574 3041.734131
247 3041.560059 -30.531288 -11.204481 3.234329 -24.308329 65.036232 3041.734131
[planeAlignerRight]
245 -0.635147 -812.270569 -0.364304 0.000000 -89.960434 -90.005180 812.270874
246 -0.635147 -812.270569 -0.364304 0.000000 -89.960434 -90.005180 812.270874
247 -0.635147 -812.270569 -0.364304 0.000000 -89.960434 -90.005180 812.270874
[R_Toe1_01]
245 -188.383347 -224.864899 21.052242 76.353661 -1.090024 -179.248489 294.101532
246 -188.383347 -224.864899 21.052242 76.325294 -1.058865 -179.239609 294.101532
247 -188.383347 -224.864899 21.052242 76.296921 -1.027702 -179.230743 294.101532
[R_Toe2_01]
245 200.637817 -220.002121 -148.787384 -90.854500 31.839094 -58.022381 332.857574
246 200.637817 -220.002121 -148.787384 -90.813599 31.852325 -57.987823 332.857574
247 200.637817 -220.002121 -148.787384 -90.772659 31.865524 -57.953232 332.857574
[R_Toe3_01]
245 188.606735 -220.092957 191.126343 -74.497795 -10.172477 -75.249947 347.192566
246 188.606735 -220.092957 191.126343 -74.459679 -10.140212 -75.255165 347.192566
247 188.606735 -220.092957 191.126343 -74.421555 -10.107939 -75.260353 347.192566
[planeLockWeightRight]
245 -0.000477 0.000000 0.000000 -0.011823 -0.004379 -0.000027 0.000477
246 -0.000477 0.000000 0.000000 -0.011823 -0.004379 -0.000027 0.000477
247 -0.000477 0.000000 0.000000 -0.011823 -0.004379 -0.000027 0.000477
[R_Toe1_02]
245 413.762085 0.000477 -0.000119 0.001450 -18.087521 0.001450 413.762085
246 413.762085 0.000477 -0.000119 0.001450 -18.088528 0.001450 413.762085
247 413.762085 0.000477 -0.000119 0.001450 -18.089523 0.001450 413.762085
[R_Toe1_03]
245 464.317810 0.000000 0.001088 -179.992203 83.092575 -179.988708 464.317810
246 464.317810 0.000000 0.001088 -179.992203 83.094566 -179.988708 464.317810
247 464.317810 0.000000 0.001088 -179.992203 83.096581 -179.988708 464.317810
[R_Toe2_02]
245 342.234741 -0.000954 0.000238 -0.002336 -78.043945 -0.002336 342.234741
246 342.234741 -0.000954 0.000238 -0.002336 -78.042671 -0.002336 342.234741
247 342.234741 -0.000954 0.000238 -0.002336 -78.041389 -0.002336 342.234741
[R_Toe2_03]
245 420.210846 0.000715 -0.000268 -179.993805 75.103081 -179.997330 420.210846
246 420.210846 0.000715 -0.000268 -179.993805 75.109940 -179.997330 420.210846
247 420.210846 0.000715 -0.000268 -179.993805 75.116798 -179.997330 420.210846
[R_Toe3_02]
245 329.270355 -0.000477 -0.000954 0.001177 -81.905563 0.001177 329.270355
246 329.270355 -0.000477 -0.000954 0.001177 -81.895088 0.001177 329.270355
247 329.270355 -0.000477 -0.000954 0.001177 -81.884583 0.001177 329.270355
[R_Toe3_03]
245 439.137939 0.000238 0.001431 -179.998047 72.200363 -179.994522 439.137939
246 439.137939 0.000238 0.001431 -179.998047 72.223022 -179.994522 439.137939
247 439.137939 0.000238 0.001431 -179.998047 72.245659 -179.994507 439.137939
[Rear_Leg02]
245 1162.777710 -0.029802 0.005960 1.603819 -2.554901 -114.027718 1162.777710
246 1162.777710 -0.029802 0.005960 1.607514 -2.552652 -114.108055 1162.777710
247 1162.777710 -0.029802 0.005960 1.616575 -2.547142 -114.300858 1162.777710
[Rear_Leg03]
245 607.192505 -0.013351 -0.073195 0.010331 -0.005425 71.761971 607.192505
246 607.192505 -0.013351 -0.073195 0.010329 -0.005428 71.802666 607.192505
247 607.192505 -0.013351 -0.073195 0.010327 -0.005432 71.843369 607.192505
[Rear_Leg04]
245 995.874512 -0.020504 -0.011921 -0.041299 -0.016229 74.455780 995.874573
246 995.874512 -0.020504 -0.011921 -0.041308 -0.016207 74.516602 995.874573
247 995.874512 -0.020504 -0.011921 -0.041328 -0.016155 74.659782 995.874573
[Rear_Foot]
245 3096.176270 -0.067472 -0.041425 -72.153908 87.120636 110.038361 3096.176270
246 3096.176270 -0.067472 -0.041425 -69.058228 87.067551 113.248871 3096.176270
247 3096.176270 -0.067472 -0.041425 -66.083099 87.005722 116.338478 3096.176270
[planeAlignerCenter]
245 0.350077 0.966311 -838.790894 0.000009 0.000003 -179.999985 838.791565
246 0.350077 0.966311 -838.790894 0.000009 0.000003 -179.999985 838.791565
247 0.350077 0.966311 -838.790894 0.000009 0.000003 -179.999985 838.791565
[Rear_Toe1_01]
245 0.653352 83.966492 -371.173737 0.396932 45.737026 90.483330 380.553192
246 0.653352 83.966492 -371.173737 0.396990 45.669491 90.482574 380.553192
247 0.653352 83.966492 -371.173737 0.397054 45.601952 90.481834 380.553192
[Rear_Toe2_01]
245 178.200760 -294.826019 -362.060547 -4.285791 44.884811 -63.413689 499.765686
246 178.200760 -294.826019 -362.060547 -4.289379 44.834797 -63.408043 499.765686
247 178.200760 -294.826019 -362.060547 -4.292969 44.784794 -63.402386 499.765686
[Rear_Toe3_01]
245 -153.359680 -308.780914 -362.060852 1.906383 44.153942 -113.723579 499.952881
246 -153.359680 -308.780914 -362.060852 1.907962 44.085068 -113.730545 499.952881
247 -153.359680 -308.780914 -362.060852 1.909547 44.016171 -113.737488 499.952881
[planeLockWeightCenter]
245 -0.000062 0.000238 0.000000 -0.011814 -0.004373 -0.000015 0.000246
246 -0.000062 0.000238 0.000000 -0.011814 -0.004373 -0.000015 0.000246
247 -0.000062 0.000238 0.000000 -0.011814 -0.004373 -0.000015 0.000246
[Rear_Toe1_02]
245 379.707825 0.194073 0.000477 -0.000734 -33.575939 0.001955 379.707855
246 379.707825 0.194073 0.000477 -0.000993 -33.572422 0.002033 379.707855
247 379.707825 0.194073 0.000477 -0.001251 -33.568897 0.002111 379.707855
[Rear_Toe1_03]
245 500.129700 0.165701 0.000119 0.008105 73.349266 0.008105 500.129761
246 500.129700 0.165701 0.000119 0.008139 73.418343 0.008139 500.129761
247 500.129700 0.165701 0.000119 0.008173 73.487427 0.008173 500.129761
[Rear_Toe2_02]
245 340.494507 0.000238 -0.000954 0.001176 -82.962517 0.001176 340.494507
246 340.494507 0.000238 -0.000954 0.001176 -82.988045 0.001176 340.494507
247 340.494507 0.000238 -0.000954 0.001176 -83.013519 0.001176 340.494507
[Rear_Toe2_03]
245 433.103577 0.000000 0.000238 179.965073 86.149078 179.965073 433.103546
246 433.103577 0.000000 0.000238 179.965622 86.086937 179.965622 433.103546
247 433.103577 0.000000 0.000238 179.966171 86.024620 179.966171 433.103546
[Rear_Toe3_02]
245 340.494141 -0.000358 -0.000477 0.001177 -81.943336 0.001177 340.494171
246 340.494141 -0.000358 -0.000477 0.001176 -81.968567 0.001176 340.494171
247 340.494141 -0.000358 -0.000477 0.001176 -81.993843 0.001176 340.494171
[Rear_Toe3_03]
245 433.103577 0.001431 -0.000238 -179.959564 88.438530 -179.956055 433.103546
246 433.103577 0.001431 -0.000238 -179.961212 88.375259 -179.957718 433.103546
247 433.103577 0.001431 -0.000238 -179.962723 88.311935 -179.959229 433.103546
[Back_Bone]
245 1312.175781 -701.934692 0.000954 0.000090 0.002345 -85.606789 1488.125488
246 1312.175781 -701.934692 0.000954 0.000090 0.002345 -85.606781 1488.125488
247 1312.175781 -701.934692 0.000954 0.000090 0.002345 -85.606789 1488.125488
[Head]
245 1406.159424 809.709290 0.001431 -15.930641 -2.668551 -15.601014 1622.625488
246 1406.159424 809.709290 0.001431 -15.368167 -1.176116 -17.016979 1622.625488
247 1406.159424 809.709290 0.001431 -15.164755 0.028005 -17.790321 1622.625488
[Motor_Bone]
245 1158.364380 -417.834747 0.000477 -0.000105 0.000046 -105.985291 1231.419434
246 1158.364380 -417.834747 0.000477 -0.000105 0.000046 -105.985291 1231.419434
247 1158.364380 -417.834747 0.000477 -0.000105 0.000046 -105.985291 1231.419434
[Ping_Mechanism]
245 1237.638306 -84.083099 17.827173 0.000103 -0.000053 82.120995 1240.619385
246 1235.699463 -83.239281 17.177534 0.000103 -0.000053 82.120995 1238.619019
247 1233.760376 -82.395477 16.527912 0.000103 -0.000053 82.120995 1236.619141
[BN_LookIK]
245 193.241119 1380.371704 -0.002861 0.000000 89.965736 -31.038179 1393.832153
246 193.241119 1380.371704 -0.002861 0.000000 89.965736 -31.038179 1393.832153
247 193.241119 1380.371704 -0.002861 0.000000 89.965736 -31.038179 1393.832153
[bottomMouth]
245 -435.092926 615.759399 -0.000954 -0.000022 0.000016 73.527184 753.966492
246 -435.092926 615.759399 -0.000954 -0.000022 0.000016 73.527184 753.966492
247 -435.092926 615.759399 -0.000954 -0.000022 0.000016 73.527184 753.966492
[L_Mouth01]
245 554.440979 7.658243 838.222046 150.204178 23.759130 109.605339 1005.027161
246 554.440979 7.658243 838.222046 150.204178 23.759130 109.605339 1005.027161
247 554.440979 7.658243 838.222046 150.204178 23.759130 109.605339 1005.027161
[L_mouthFront]
245 551.629089 934.514771 339.150421 0.000081 2.804060 79.119301 1136.941284
246 551.629089 934.514771 339.150421 0.000081 2.804060 79.119301 1136.941284
247 551.629089 934.514771 339.150421 0.000081 2.804060 79.119301 1136.941284
[mouthGun]
245 55.332661 1627.420898 0.000000 0.000023 0.000009 -11.038128 1628.361328
246 55.332661 1627.420898 0.000000 0.000023 0.000009 -11.038128 1628.361328
247 55.332661 1627.420898 0.000000 0.000023 0.000009 -11.038128 1628.361328
[R_Mouth01]
245 554.442383 7.659197 -838.223938 29.795891 -23.759109 109.605331 1005.029541
246 554.442383 7.659197 -838.223938 29.795891 -23.759109 109.605331 1005.029541
247 554.442383 7.659197 -838.223938 29.795891 -23.759109 109.605331 1005.029541
[R_mouthFront]
245 551.629089 934.514282 -339.151367 0.000029 -2.803930 79.119133 1136.941162
246 551.629089 934.514282 -339.151367 0.000029 -2.803930 79.119133 1136.941162
247 551.629089 934.514282 -339.151367 0.000029 -2.803930 79.119133 1136.941162
[TopMouth]
245 461.269867 -56.106091 -0.008583 -0.000059 -0.000268 92.025169 464.669525
246 461.269867 -56.106091 -0.008583 -0.000059 -0.000268 92.025169 464.669525
247 461.269867 -56.106091 -0.008583 -0.000059 -0.000268 92.025169 464.669525
[weapon_bone]
245 -987.239868 1448.372803 0.001431 0.000000 89.965736 -31.038221 1752.833740
246 -987.239868 1448.372803 0.001431 0.000000 89.965736 -31.038221 1752.833740
247 -987.239868 1448.372803 0.001431 0.000000 89.965736 -31.038221 1752.833740
